<?xml version="1.0" standalone="no"?>
<!DOCTYPE svg PUBLIC "-//W3C//DTD SVG 20010904//EN"
 "http://www.w3.org/TR/2001/REC-SVG-20010904/DTD/svg10.dtd">
<svg version="1.0" xmlns="http://www.w3.org/2000/svg"
 width="8401.000000pt" height="5404.000000pt" viewBox="0 0 8401.000000 5404.000000"
 preserveAspectRatio="xMidYMid meet">

<g transform="translate(0.000000,5404.000000) scale(0.100000,-0.100000)"
fill="#000000" stroke="none">
<path d="M10 27020 l0 -27020 42000 0 42000 0 0 27020 0 27020 -42000 0
-42000 0 0 -27020z m22862 12833 c42 -4 82 -13 88 -19 30 -30 34 -635 38
-5514 2 -2681 4 -5154 5 -5495 1 -619 -14 -1063 -35 -1076 -11 -7 -55 -13
-248 -31 -189 -18 -1309 -15 -1995 6 -1091 32 -1742 41 -2125 27 -331 -11
-489 -21 -584 -37 -31 -5 -36 -8 -23 -15 45 -26 258 -103 572 -209 428 -144
540 -187 770 -300 1102 -540 1979 -1268 2567 -2130 317 -465 574 -1015 761
-1630 163 -534 259 -1043 319 -1685 21 -221 17 -984 -5 -1205 -81 -803 -259
-1415 -594 -2050 -347 -657 -733 -1061 -1388 -1457 -552 -333 -1169 -558
-1949 -712 -595 -118 -1192 -170 -2186 -190 -452 -9 -5864 -1 -5873 9 -2 3 -6
2712 -8 6020 l-4 6015 55 7 c271 34 1497 42 2885 19 943 -16 2407 -23 2570
-14 l140 9 -40 18 c-22 10 -175 56 -340 103 -1163 329 -1647 502 -2255 804
-609 303 -996 581 -1445 1040 -591 603 -993 1263 -1245 2044 -230 714 -343
1598 -327 2570 8 454 33 762 92 1125 212 1292 761 2266 1631 2893 382 275 910
528 1439 690 746 228 1643 354 2720 380 266 6 5952 -3 6017 -10z m10392 -24
c3 -17 6 -834 6 -1814 0 -1688 1 -1783 18 -1790 31 -14 1397 -17 2257 -6 2322
31 3285 24 3553 -25 24 -5 36 -14 43 -32 19 -48 47 -247 61 -417 17 -220 17
-1440 0 -1825 -46 -1029 -77 -1341 -178 -1780 -260 -1126 -859 -2240 -1585
-2945 -242 -236 -687 -593 -959 -770 -331 -217 -964 -532 -1303 -651 -324
-112 -487 -137 -1177 -179 -240 -15 -628 -49 -696 -61 l-31 -6 -6 -1395 c-4
-768 -7 -2290 -7 -3382 0 -1092 -3 -3015 -7 -4273 l-6 -2286 -31 -6 c-17 -3
-186 -10 -376 -16 -510 -16 -1103 7 -1600 61 -1587 172 -2857 629 -3772 1357
-159 126 -492 456 -642 637 -1049 1260 -1712 2971 -1885 4870 -39 420 -43 583
-71 2675 -46 3473 -70 6433 -68 8485 2 940 -3 1914 -10 2320 -18 1068 -26
2340 -17 2838 l7 447 4238 0 4238 0 6 -31z m31291 -9109 c399 -22 726 -82
1045 -192 650 -224 1017 -612 1129 -1191 19 -100 46 -325 39 -332 -2 -2 -280
-5 -618 -6 l-614 -3 -28 95 c-15 52 -48 137 -74 189 -38 77 -62 109 -123 170
-120 119 -242 171 -506 215 -409 69 -851 57 -1195 -32 -256 -65 -412 -206
-439 -395 -29 -208 80 -351 359 -470 182 -78 398 -129 1020 -243 625 -114 873
-172 1175 -275 803 -274 1158 -708 1182 -1445 8 -255 -30 -441 -132 -652 -266
-545 -935 -916 -1865 -1032 -752 -95 -1573 5 -2100 255 -212 101 -390 231
-585 428 -242 242 -371 470 -431 756 -19 90 -27 380 -11 397 5 4 273 10 596
11 l588 4 20 -49 c11 -26 35 -93 53 -148 110 -338 276 -486 647 -581 378 -96
1041 -91 1443 11 262 66 445 190 496 335 22 65 29 178 14 252 -19 100 -55 165
-136 245 -60 60 -92 81 -186 127 -203 99 -375 142 -988 246 -741 126 -1017
192 -1343 321 -570 226 -954 618 -1058 1079 -86 382 30 819 315 1183 350 449
1083 710 2066 735 30 1 141 -3 245 -8z m-17740 -109 c924 -49 1216 -110 1529
-318 183 -122 344 -307 430 -494 158 -344 156 -830 -5 -1150 -86 -171 -204
-297 -468 -498 -87 -67 -164 -127 -170 -135 -9 -11 1 -18 51 -36 102 -36 269
-127 360 -195 193 -145 334 -342 412 -575 49 -146 67 -259 73 -445 19 -621
-236 -1080 -745 -1338 -226 -115 -412 -164 -764 -204 -119 -13 -333 -17 -1263
-22 -1327 -7 -2083 -5 -2255 6 l-125 8 -3 2691 -2 2691 247 8 c618 19 901 23
1673 20 454 -2 915 -8 1025 -14z m5585 -6 c1003 -2 1051 -4 1323 -50 566 -97
943 -345 1160 -764 147 -282 207 -541 207 -884 0 -252 -27 -435 -95 -644 -108
-327 -245 -510 -530 -703 -152 -103 -255 -192 -255 -222 0 -61 178 -437 445
-938 307 -578 565 -1118 565 -1185 0 -13 -73 -15 -677 -13 l-676 3 -22 65
c-89 259 -669 1492 -826 1753 l-53 89 -516 -7 c-283 -4 -702 -10 -930 -14
l-415 -6 3 -936 c3 -675 1 -939 -7 -944 -6 -3 -286 -3 -621 1 l-610 7 6 2691
c4 1480 8 2692 9 2694 9 11 627 19 1055 14 278 -3 935 -6 1460 -7z m6721 -11
l105 -7 51 -152 c97 -287 217 -575 573 -1371 276 -617 362 -814 481 -1113 113
-281 209 -504 494 -1151 276 -626 441 -1011 528 -1230 63 -160 127 -341 127
-361 0 -6 -241 -8 -641 -7 l-641 3 -203 499 c-113 274 -206 500 -207 501 -2 1
-592 5 -1311 8 l-1308 5 -15 -23 c-56 -85 -286 -640 -360 -866 l-37 -116 -285
-6 c-503 -12 -972 -9 -972 6 0 25 47 173 99 309 68 181 195 477 428 998 105
234 310 709 455 1055 146 347 492 1169 769 1828 l504 1197 631 0 c347 0 678
-3 735 -6z m9757 -10 l72 -6 -5 -1792 c-8 -2884 -14 -3569 -28 -3578 -6 -4
-265 -7 -574 -5 -556 2 -563 2 -583 23 -12 12 -25 38 -30 60 -5 22 -5 341 1
749 22 1520 12 4017 -17 4469 l-7 99 549 -7 c302 -4 582 -9 622 -12z m2392
-2138 l0 -2153 1485 -5 c817 -2 1486 -6 1488 -9 1 -2 1 -242 -1 -533 l-4 -528
-2081 7 c-1145 4 -2085 9 -2089 12 -10 5 -11 5347 -1 5356 3 4 276 7 605 7
l598 0 0 -2154z"/>
<path d="M45263 29621 c-79 -4 -147 -11 -152 -16 -5 -6 -16 -50 -23 -100 -14
-100 -17 -776 -4 -946 l8 -96 591 -6 c326 -3 772 -2 992 3 462 10 538 20 683
91 185 90 262 233 262 490 0 295 -108 460 -350 533 -133 41 -235 45 -1065 50
-440 2 -864 1 -942 -3z"/>
<path d="M45224 27503 l-122 -4 -6 -282 c-3 -155 -8 -440 -12 -633 l-6 -351
123 -6 c208 -12 1835 -8 1975 4 326 28 481 122 554 339 19 53 24 95 27 226 6
192 -8 281 -64 394 -79 162 -224 252 -478 297 -77 14 -214 16 -980 18 -489 0
-945 0 -1011 -2z"/>
<path d="M52230 29600 c-173 -4 -486 -11 -695 -15 l-380 -7 -7 -25 c-22 -80
-29 -288 -27 -815 l2 -570 316 6 c174 3 669 8 1101 12 859 6 859 6 972 66 88
47 178 148 232 260 97 204 111 425 42 644 -67 210 -225 364 -417 408 -157 36
-592 49 -1139 36z"/>
<path d="M58451 29439 c-5 -13 -208 -505 -451 -1093 -242 -587 -440 -1070
-438 -1071 5 -5 1758 -28 1763 -24 9 9 -101 312 -195 539 -56 135 -142 349
-190 475 -89 235 -469 1187 -476 1194 -2 2 -8 -7 -13 -20z"/>
</g>
</svg>
