<svg width="1440" height="858" viewBox="0 0 1440 858" fill="none" xmlns="http://www.w3.org/2000/svg">
<path d="M0 0H1440V858H0V0ZM462.139 512.303C462.197 512.418 490.291 512.508 524.563 512.508C607.522 512.508 625.478 511.263 648.72 503.919C665.122 498.737 677.088 490.599 682.891 480.66C687.514 472.735 688.421 469.166 688.478 458.784C688.565 440.314 678.715 424.898 659.275 413.06C642.859 403.064 628.632 397.799 606.816 393.64L596.88 391.749L687.6 390.93L687.974 327.636L688.334 264.343L615.974 264.629L543.6 264.916L529.2 267.126C492.768 272.718 473.17 282.788 464.904 300.177C460.498 309.429 460.483 329.953 464.875 339.18C474.782 360 500.616 374.049 544.205 382.359C551.232 383.693 558.706 384.79 560.822 384.79C563.011 384.79 564.264 385.142 563.76 385.609C563.198 386.133 544.248 386.427 511.675 386.427H460.483L461.261 449.263C461.678 483.82 462.082 512.188 462.139 512.303ZM833.342 510.797C837.936 511.181 850.81 511.533 861.984 511.591L882.274 511.689L883.21 501.25C883.728 495.511 884.146 469.026 884.16 442.402V393.984L893.88 393.452C910.008 392.568 917.294 391.381 933.062 387.074C946.397 383.431 949.622 382.097 961.142 375.481C976.522 366.648 985.306 358.428 990.446 348.039C993.542 341.784 994.018 338.845 994.651 321.955L995.371 302.92H957.269C936.317 302.92 911.29 302.682 901.67 302.388L884.16 301.847V264.441H722.88L722.966 323.183C723.067 397.586 724.651 437.277 727.949 447.83C734.731 469.591 748.426 484.754 770.818 495.315C787.075 502.986 811.166 508.954 833.342 510.797ZM462.24 555.08V614.166L494.28 613.888C530.05 613.576 535.363 612.889 543.254 607.567C553.565 600.592 551.174 589.04 538.517 584.66L534.139 583.145L537.912 581.737C546.264 578.626 549.461 569.833 544.493 563.677C538.315 556.03 533.146 555.162 493.56 555.113L462.24 555.08ZM564.48 555.08V614.027H584.64V593.51L601.402 593.739L618.178 593.969L633.01 613.617L644.098 613.855C652.45 614.035 655.186 613.83 655.157 613.036C655.128 612.455 651.298 607.191 646.632 601.337L638.15 590.694L642.398 588.778C649.858 585.397 652.982 580.902 653.011 573.501C653.04 565.92 649.814 561.703 641.52 558.47C634.018 555.547 628.128 555.121 595.08 555.097L564.48 555.08ZM660.96 613.404C660.96 613.789 665.568 613.994 671.198 613.855L681.437 613.617L684.95 608.615L688.464 603.605L697.248 603.089C702.072 602.802 712.325 602.565 720.043 602.565H734.054L740.88 613.617H751.68C760.536 613.617 762.394 613.396 762.005 612.389C761.746 611.71 756.173 603.244 749.621 593.559C743.069 583.874 734.602 571.258 730.8 565.519L723.888 555.08H698.933L689.342 569.612C666.619 604.006 660.96 612.75 660.96 613.404ZM799.517 613.986C809.165 614.96 828.274 614.321 834.638 612.815C848.938 609.417 856.238 603.072 854.971 595.147C854.064 589.457 850.075 585.356 843.034 582.883C840.298 581.925 829.296 579.911 818.582 578.421C795.326 575.179 791.654 574.049 792.274 570.382C792.864 566.927 799.733 564.905 810.864 564.905C822.773 564.905 827.453 566.1 830.39 569.891L832.867 573.092H842.587C847.944 573.092 852.653 572.772 853.085 572.379C853.502 571.986 852.984 569.759 851.918 567.418C848.347 559.591 838.138 555.588 819.36 554.638C801.403 553.729 784.109 556.284 776.693 560.934C769.349 565.543 768.557 574.696 775.022 580.247C780.106 584.619 790.675 587.615 807.566 589.474C830.146 591.963 834.264 593.289 833.486 597.808C832.81 601.787 825.797 603.809 812.88 603.744C807.336 603.719 801.187 603.212 799.2 602.622C793.541 600.927 789.12 598.324 789.12 596.695C789.12 595.377 787.81 595.197 778.32 595.197C766.094 595.197 765.432 595.688 769.752 601.566C774.403 607.911 785.592 612.578 799.517 613.986ZM911.059 613.495C911.606 613.806 927.648 613.953 946.699 613.838L981.36 613.617L981.792 608.091L982.21 602.565H958.507C945.461 602.565 933.768 602.344 932.515 602.065C930.514 601.632 930.24 598.766 930.24 578.323V555.08H910.08V584.005C910.08 599.92 910.526 613.183 911.059 613.495ZM870.782 613.511C871.344 613.83 876.038 613.986 881.222 613.855L890.64 613.617L891.403 555.08H869.76V584.005C869.76 599.92 870.221 613.2 870.782 613.511ZM1356.74 827.855C1359.86 831.785 1362.24 832.948 1362.24 830.541C1362.24 826.161 1375.88 817.417 1387.08 814.609C1390.84 813.667 1393.92 812.742 1393.92 812.546C1393.92 812.357 1390.29 811.195 1385.86 809.959C1376.29 807.298 1365.84 801.018 1363.46 796.515C1362.54 794.763 1361.4 793.323 1360.93 793.323C1360.47 793.331 1357.95 795.672 1355.34 798.529C1349.64 804.817 1346.73 806.446 1334.78 810.073C1327.18 812.382 1326.07 812.971 1328.41 813.43C1342.21 816.115 1350.94 820.561 1356.74 827.855ZM625.968 580.869C623.606 581.803 618.538 582.097 604.57 582.097C594.49 582.097 585.893 581.778 585.475 581.377C585.043 580.984 584.726 577.488 584.784 573.599L584.87 566.542H605.419C623.146 566.542 626.27 566.738 628.229 567.975C633.557 571.34 632.333 578.331 625.968 580.869ZM525.154 600.788C522.058 602.434 520.358 602.565 502.114 602.565H482.4V589.466H502.459C522.403 589.466 522.533 589.474 525.499 591.619C529.517 594.533 529.373 598.529 525.154 600.788ZM522.072 576.817C518.688 578.732 517.723 578.823 500.472 578.823H482.4V565.723H500.875C518.314 565.723 519.509 565.83 522.475 567.615C526.766 570.218 526.579 574.246 522.072 576.817ZM725.76 590.939C725.76 591.635 721.656 591.922 711.605 591.922C703.814 591.922 697.104 591.725 696.686 591.496C696.269 591.259 698.098 587.476 700.762 583.104C708.034 571.102 710.064 568.179 711.115 568.196C712.166 568.212 725.76 589.335 725.76 590.939Z" fill="#010101"/>
</svg>
